<svg width="184" height="18" viewBox="0 0 184 18" fill="none" xmlns="http://www.w3.org/2000/svg">
<path d="M0.299 17.342C0.0990001 17.342 0 17.242 0 17.043V0.759C0 0.559 0.1 0.46 0.299 0.46H2.944C3.113 0.46 3.228 0.529 3.289 0.667L9.131 10.373L14.904 0.667C14.9356 0.60305 14.9849 0.549536 15.0461 0.512835C15.1073 0.476134 15.1777 0.457794 15.249 0.46H17.825C18.025 0.46 18.124 0.56 18.124 0.759V17.043C18.124 17.243 18.024 17.342 17.825 17.342H15.433C15.233 17.342 15.134 17.242 15.134 17.043V5.635L10.189 13.915C10.128 14.053 10.013 14.122 9.844 14.122H8.28C8.2087 14.1242 8.13827 14.1059 8.0771 14.0692C8.01593 14.0325 7.96661 13.979 7.935 13.915L2.99 5.75V17.043C2.99 17.243 2.89 17.342 2.691 17.342H0.299ZM22.109 17.342C21.909 17.342 21.809 17.242 21.809 17.043V0.759C21.809 0.559 21.909 0.46 22.109 0.46H24.616C24.815 0.46 24.915 0.56 24.915 0.759V17.043C24.915 17.243 24.815 17.342 24.615 17.342H22.11H22.109ZM28.892 17.342C28.692 17.342 28.592 17.242 28.592 17.043V0.759C28.592 0.559 28.692 0.46 28.892 0.46H31.537C31.69 0.46 31.813 0.529 31.905 0.667L39.449 12.328V0.759C39.449 0.559 39.549 0.46 39.748 0.46H42.14C42.34 0.46 42.439 0.56 42.439 0.759V17.043C42.439 17.243 42.339 17.342 42.139 17.342H39.518C39.4439 17.3429 39.3709 17.3242 39.3063 17.2878C39.2417 17.2515 39.1878 17.1988 39.15 17.135L31.583 5.451V17.043C31.583 17.243 31.483 17.342 31.283 17.342H28.892V17.342ZM46.412 17.342C46.212 17.342 46.112 17.242 46.112 17.043V0.759C46.112 0.559 46.212 0.46 46.412 0.46H48.918C49.118 0.46 49.218 0.56 49.218 0.759V17.043C49.218 17.243 49.118 17.342 48.918 17.342H46.411H46.412ZM60.853 17.664C59.213 17.664 57.749 17.304 56.461 16.583C55.197 15.8561 54.155 14.7986 53.447 13.524C52.711 12.205 52.344 10.664 52.344 8.901C52.344 7.138 52.711 5.604 53.448 4.301C54.184 2.982 55.188 1.963 56.461 1.242C57.749 0.506 59.213 0.138 60.853 0.138C62.494 0.138 63.951 0.506 65.223 1.242C66.511 1.962 67.523 2.982 68.26 4.301C68.996 5.604 69.364 7.138 69.364 8.901C69.364 10.664 68.996 12.205 68.26 13.524C67.548 14.803 66.4976 15.8613 65.224 16.583C63.951 17.303 62.494 17.664 60.854 17.664H60.853ZM60.853 14.628C61.943 14.628 62.878 14.383 63.659 13.892C64.4527 13.4065 65.0911 12.7042 65.499 11.868C65.929 10.994 66.144 10.005 66.144 8.901C66.144 7.781 65.929 6.793 65.5 5.934C65.0911 5.09841 64.453 4.39641 63.66 3.91C62.878 3.42 61.942 3.174 60.854 3.174C59.78 3.174 58.844 3.419 58.048 3.91C57.2543 4.39555 56.6159 5.09778 56.208 5.934C55.778 6.793 55.563 7.782 55.563 8.901C55.563 10.005 55.778 10.994 56.208 11.868C56.6162 12.704 57.2545 13.4062 58.048 13.892C58.845 14.382 59.78 14.628 60.854 14.628H60.853ZM72.78 17.342C72.581 17.342 72.481 17.242 72.481 17.043V0.759C72.481 0.559 72.581 0.46 72.781 0.46H75.425C75.579 0.46 75.701 0.529 75.793 0.667L83.337 12.328V0.759C83.337 0.559 83.437 0.46 83.637 0.46H86.028C86.228 0.46 86.328 0.56 86.328 0.759V17.043C86.328 17.243 86.228 17.342 86.028 17.342H83.406C83.3319 17.3427 83.259 17.3239 83.1944 17.2876C83.1298 17.2512 83.0759 17.1986 83.038 17.135L75.471 5.451V17.043C75.471 17.243 75.371 17.342 75.172 17.342H72.78ZM95.153 17.664C93.573 17.664 92.247 17.288 91.174 16.537C90.101 15.77 89.342 14.659 88.897 13.202C88.82 13.002 88.889 12.88 89.104 12.834L91.496 12.259C91.68 12.213 91.803 12.282 91.864 12.466C92.171 13.202 92.577 13.746 93.083 14.099C93.604 14.452 94.294 14.628 95.153 14.628C95.966 14.628 96.625 14.49 97.131 14.214C97.637 13.923 97.89 13.463 97.89 12.834C97.89 12.221 97.645 11.73 97.154 11.362C96.664 10.979 95.989 10.634 95.13 10.327L93.635 9.798C92.285 9.338 91.228 8.709 90.461 7.912C89.694 7.099 89.311 6.087 89.311 4.876C89.311 3.956 89.556 3.143 90.047 2.438C90.553 1.718 91.235 1.158 92.094 0.759C92.953 0.345 93.911 0.138 94.969 0.138C96.379 0.138 97.591 0.475 98.603 1.15C99.615 1.81 100.336 2.844 100.765 4.255C100.842 4.455 100.773 4.577 100.558 4.623L98.028 5.267C97.844 5.313 97.721 5.244 97.66 5.06C97.384 4.37 97.024 3.887 96.579 3.611C96.134 3.32 95.598 3.174 94.969 3.174C94.233 3.174 93.643 3.32 93.198 3.611C92.753 3.902 92.531 4.293 92.531 4.784C92.531 5.305 92.761 5.758 93.221 6.141C93.681 6.509 94.401 6.861 95.383 7.199L96.579 7.59C98.112 8.096 99.247 8.748 99.983 9.545C100.734 10.342 101.11 11.439 101.11 12.834C101.11 13.769 100.857 14.605 100.351 15.341C99.845 16.061 99.147 16.629 98.258 17.043C97.368 17.457 96.334 17.664 95.153 17.664V17.664ZM113.838 17.572C112.596 17.572 111.523 17.312 110.618 16.79C109.726 16.266 109.001 15.5006 108.525 14.582C108.05 13.647 107.812 12.581 107.812 11.385C107.812 10.174 108.05 9.108 108.525 8.188C108.997 7.27278 109.724 6.51386 110.618 6.003C111.523 5.466 112.596 5.198 113.838 5.198C115.065 5.198 116.1 5.482 116.943 6.049C117.802 6.616 118.446 7.414 118.875 8.441C119.32 9.453 119.519 10.641 119.473 12.006C119.458 12.206 119.351 12.305 119.151 12.305H110.986C111.124 13.118 111.439 13.762 111.929 14.237C112.42 14.697 113.064 14.927 113.861 14.927C115.057 14.927 115.931 14.475 116.483 13.57C116.56 13.432 116.69 13.386 116.874 13.432L118.921 14.145C119.121 14.222 119.174 14.352 119.082 14.536C118.561 15.579 117.833 16.346 116.897 16.836C115.953 17.3285 114.903 17.5812 113.838 17.572V17.572ZM113.815 7.843C113.11 7.843 112.512 8.043 112.021 8.441C111.546 8.824 111.216 9.369 111.032 10.074H116.276C116.138 9.369 115.855 8.824 115.425 8.441C114.996 8.042 114.459 7.843 113.815 7.843V7.843ZM126.563 17.572C125.428 17.572 124.439 17.312 123.596 16.79C122.768 16.269 122.124 15.54 121.664 14.605C121.219 13.67 120.997 12.596 120.997 11.385C120.997 10.158 121.219 9.085 121.664 8.165C122.124 7.23 122.768 6.501 123.596 5.98C124.439 5.459 125.428 5.198 126.563 5.198C127.345 5.198 128.058 5.351 128.702 5.658C129.326 5.93399 129.877 6.35132 130.312 6.877V0.391C130.312 0.191 130.412 0.092 130.611 0.092H133.003C133.202 0.092 133.302 0.192 133.302 0.391V17.043C133.302 17.243 133.202 17.342 133.003 17.342H130.841C130.626 17.342 130.519 17.242 130.519 17.043L130.45 15.709C130.017 16.2954 129.449 16.7688 128.794 17.089C128.135 17.411 127.391 17.572 126.563 17.572V17.572ZM127.299 14.858C128.25 14.858 129.024 14.536 129.622 13.892C130.22 13.248 130.519 12.412 130.519 11.385C130.519 10.358 130.22 9.522 129.622 8.878C129.024 8.234 128.25 7.912 127.299 7.912C126.348 7.912 125.574 8.234 124.976 8.878C124.378 9.522 124.079 10.358 124.079 11.385C124.079 12.412 124.378 13.248 124.976 13.892C125.574 14.536 126.348 14.858 127.299 14.858ZM137.916 3.312C137.426 3.312 137.012 3.159 136.674 2.852C136.337 2.545 136.168 2.147 136.168 1.656C136.168 1.166 136.337 0.766 136.674 0.46C137.012 0.153 137.426 0 137.916 0C138.407 0 138.821 0.153 139.158 0.46C139.496 0.767 139.664 1.165 139.664 1.656C139.664 2.146 139.496 2.546 139.158 2.852C138.821 3.159 138.407 3.312 137.916 3.312V3.312ZM136.72 17.342C136.521 17.342 136.421 17.242 136.421 17.043V5.727C136.421 5.527 136.521 5.428 136.72 5.428H139.112C139.312 5.428 139.411 5.528 139.411 5.727V17.043C139.411 17.243 139.312 17.342 139.112 17.342H136.72ZM147.177 17.572C145.889 17.572 144.9 17.173 144.21 16.376C143.52 15.563 143.175 14.352 143.175 12.742V8.096H141.427C141.227 8.096 141.128 7.996 141.128 7.797V5.727C141.128 5.527 141.227 5.428 141.427 5.428H143.175V2.231C143.175 2.031 143.274 1.932 143.474 1.932H145.866C146.065 1.932 146.165 2.032 146.165 2.231V5.428H148.994C149.193 5.428 149.293 5.528 149.293 5.727V7.797C149.293 7.997 149.193 8.096 148.994 8.096H146.165V12.926C146.165 14.214 146.609 14.858 147.499 14.858C147.882 14.858 148.181 14.666 148.396 14.283C148.503 14.099 148.641 14.053 148.81 14.145L150.604 14.95C150.803 15.042 150.834 15.203 150.696 15.433C150.266 16.215 149.737 16.767 149.109 17.089C148.514 17.4061 147.851 17.572 147.177 17.572V17.572ZM153.864 3.312C153.373 3.312 152.959 3.159 152.622 2.852C152.284 2.545 152.116 2.147 152.116 1.656C152.116 1.166 152.284 0.766 152.622 0.46C152.959 0.153 153.373 0 153.864 0C154.354 0 154.768 0.153 155.106 0.46C155.443 0.767 155.612 1.165 155.612 1.656C155.612 2.146 155.443 2.546 155.106 2.852C154.768 3.159 154.354 3.312 153.864 3.312ZM152.668 17.342C152.468 17.342 152.369 17.242 152.369 17.043V5.727C152.369 5.527 152.468 5.428 152.668 5.428H155.06C155.259 5.428 155.359 5.528 155.359 5.727V17.043C155.359 17.243 155.259 17.342 155.06 17.342H152.668ZM164.09 17.572C162.817 17.572 161.706 17.312 160.755 16.79C159.837 16.2701 159.08 15.5058 158.57 14.582C158.049 13.647 157.788 12.581 157.788 11.385C157.788 10.174 158.049 9.108 158.57 8.188C159.077 7.26737 159.834 6.50963 160.755 6.003C161.706 5.466 162.817 5.198 164.09 5.198C165.363 5.198 166.467 5.466 167.402 6.003C168.333 6.50413 169.099 7.2627 169.61 8.188C170.131 9.108 170.392 10.174 170.392 11.385C170.392 12.581 170.131 13.647 169.61 14.582C169.089 15.517 168.353 16.253 167.402 16.79C166.467 17.311 165.363 17.572 164.09 17.572ZM164.09 14.858C165.041 14.858 165.815 14.536 166.413 13.892C167.011 13.248 167.31 12.412 167.31 11.385C167.31 10.358 167.011 9.522 166.413 8.878C165.815 8.234 165.041 7.912 164.09 7.912C163.139 7.912 162.365 8.234 161.767 8.878C161.169 9.522 160.87 10.358 160.87 11.385C160.87 12.412 161.169 13.248 161.767 13.892C162.365 14.536 163.139 14.858 164.09 14.858ZM173.129 17.342C172.93 17.342 172.83 17.242 172.83 17.043V5.727C172.83 5.527 172.93 5.428 173.129 5.428H175.291C175.506 5.428 175.613 5.528 175.613 5.727L175.682 7.084C176.11 6.46919 176.699 5.98384 177.384 5.681C178.068 5.36048 178.814 5.19552 179.569 5.198C180.949 5.198 182.015 5.589 182.766 6.371C183.533 7.153 183.916 8.226 183.916 9.591V17.043C183.916 17.243 183.817 17.342 183.617 17.342H181.225C181.026 17.342 180.926 17.242 180.926 17.043V10.81C180.926 9.813 180.742 9.085 180.374 8.625C180.006 8.15 179.431 7.912 178.649 7.912C178.174 7.912 177.714 8.035 177.269 8.28C176.84 8.525 176.487 8.893 176.211 9.384C175.951 9.874 175.82 10.504 175.82 11.27V17.043C175.82 17.243 175.721 17.342 175.521 17.342H173.129V17.342Z" fill="black"/>
</svg>
